HIERARCHY
ROOT hip
{
  OFFSET 0 0 0
  CHANNELS 6 Xposition Yposition Zposition Zrotation Yrotation Xrotation
  JOINT abdomen
  {
    OFFSET 0 20.6881 -0.73152
    CHANNELS 3 Zrotation Xrotation Yrotation
    JOINT chest
    {
      OFFSET 0 11.7043 -0.48768
      CHANNELS 3 Zrotation Xrotation Yrotation
      JOINT neck
      {
        OFFSET 0 22.1894 -2.19456
        CHANNELS 3 Zrotation Xrotation Yrotation
        JOINT head
        {
          OFFSET -0.24384 7.07133 1.2192
          CHANNELS 3 Zrotation Xrotation Yrotation
          JOINT leftEye
          {
            OFFSET 4.14528 8.04674 8.04672
            CHANNELS 3 Zrotation Xrotation Yrotation
            End Site
            {
              OFFSET 1 0 0
            }
          }
          JOINT rightEye
          {
            OFFSET -3.6576 8.04674 8.04672
            CHANNELS 3 Zrotation Xrotation Yrotation
            End Site
            {
              OFFSET 1 0 0
            }
          }
        }
      }
      JOINT rCollar
      {
        OFFSET -2.68224 19.2634 -4.8768
        CHANNELS 3 Zrotation Xrotation Yrotation
        JOINT rShldr
        {
          OFFSET -8.77824 -1.95073 1.46304
          CHANNELS 3 Zrotation Xrotation Yrotation
          JOINT rForeArm
          {
            OFFSET -28.1742 -1.7115 0.48768
            CHANNELS 3 Zrotation Xrotation Yrotation
            JOINT rHand
            {
              OFFSET -22.5879 0.773209 7.07136
              CHANNELS 3 Zrotation Xrotation Yrotation
              JOINT rThumb1
              {
                OFFSET -1.2192 -0.487915 3.41376
                CHANNELS 3 Zrotation Xrotation Yrotation
                JOINT rThumb2
                {
                  OFFSET -3.37035 -0.52449 3.41376
                  CHANNELS 3 Zrotation Xrotation Yrotation
                  End Site
                  {
                    OFFSET -1.78271 -1.18214 1.43049
                  }
                }
              }
              JOINT rIndex1
              {
                OFFSET -7.75947 0.938293 5.60832
                CHANNELS 3 Zrotation Xrotation Yrotation
                JOINT rIndex2
                {
                  OFFSET -2.54057 -0.884171 1.56538
                  CHANNELS 3 Zrotation Xrotation Yrotation
                  End Site
                  {
                    OFFSET -1.62519 -0.234802 1.16502
                  }
                }
              }
              JOINT rMid1
              {
                OFFSET -8.24714 1.18213 3.41376
                CHANNELS 3 Zrotation Xrotation Yrotation
                JOINT rMid2
                {
                  OFFSET -3.10165 -0.590103 1.0647
                  CHANNELS 3 Zrotation Xrotation Yrotation
                  End Site
                  {
                    OFFSET -2.48547 -0.328903 0.83742
                  }
                }
              }
              JOINT rRing1
              {
                OFFSET -8.82822 0.546677 1.51678
                CHANNELS 3 Zrotation Xrotation Yrotation
                JOINT rRing2
                {
                  OFFSET -2.60934 -0.819778 -0.0198488
                  CHANNELS 3 Zrotation Xrotation Yrotation
                  End Site
                  {
                    OFFSET -2.33842 -0.294052 0.168128
                  }
                }
              }
              JOINT rPinky1
              {
                OFFSET -8.27202 -0.0477905 -0.4584
                CHANNELS 3 Zrotation Xrotation Yrotation
                JOINT rPinky2
                {
                  OFFSET -1.82734 -0.647385 -0.700984
                  CHANNELS 3 Zrotation Xrotation Yrotation
                  End Site
                  {
                    OFFSET -1.69225 -0.51767 -0.607171
                  }
                }
              }
            }
          }
        }
      }
      JOINT lCollar
      {
        OFFSET 2.68224 19.2634 -4.8768
        CHANNELS 3 Zrotation Xrotation Yrotation
        JOINT lShldr
        {
          OFFSET 8.77824 -1.95073 1.46304
          CHANNELS 3 Zrotation Xrotation Yrotation
          JOINT lForeArm
          {
            OFFSET 28.1742 -1.7115 0.48768
            CHANNELS 3 Zrotation Xrotation Yrotation
            JOINT lHand
            {
              OFFSET 22.5879 0.773209 7.07136
              CHANNELS 3 Zrotation Xrotation Yrotation
              JOINT lThumb1
              {
                OFFSET 1.2192 -0.487915 3.41376
                CHANNELS 3 Zrotation Xrotation Yrotation
                JOINT lThumb2
                {
                  OFFSET 3.37035 -0.52449 3.41376
                  CHANNELS 3 Zrotation Xrotation Yrotation
                  End Site
                  {
                    OFFSET 1.78271 -1.18214 1.43049
                  }
                }
              }
              JOINT lIndex1
              {
                OFFSET 7.75947 0.938293 5.60832
                CHANNELS 3 Zrotation Xrotation Yrotation
                JOINT lIndex2
                {
                  OFFSET 2.54057 -0.884171 1.56538
                  CHANNELS 3 Zrotation Xrotation Yrotation
                  End Site
                  {
                    OFFSET 1.62519 -0.234802 1.16502
                  }
                }
              }
              JOINT lMid1
              {
                OFFSET 8.24714 1.18213 3.41376
                CHANNELS 3 Zrotation Xrotation Yrotation
                JOINT lMid2
                {
                  OFFSET 3.10165 -0.590103 1.0647
                  CHANNELS 3 Zrotation Xrotation Yrotation
                  End Site
                  {
                    OFFSET 2.48547 -0.328903 0.83742
                  }
                }
              }
              JOINT lRing1
              {
                OFFSET 8.82822 0.546677 1.51678
                CHANNELS 3 Zrotation Xrotation Yrotation
                JOINT lRing2
                {
                  OFFSET 2.60934 -0.819778 -0.0198488
                  CHANNELS 3 Zrotation Xrotation Yrotation
                  End Site
                  {
                    OFFSET 2.33842 -0.294052 0.168128
                  }
                }
              }
              JOINT lPinky1
              {
                OFFSET 8.27202 -0.0477905 -0.4584
                CHANNELS 3 Zrotation Xrotation Yrotation
                JOINT lPinky2
                {
                  OFFSET 1.82734 -0.647385 -0.700984
                  CHANNELS 3 Zrotation Xrotation Yrotation
                  End Site
                  {
                    OFFSET 1.69225 -0.51767 -0.607171
                  }
                }
              }
            }
          }
        }
      }
    }
  }
  JOINT rButtock
  {
    OFFSET -8.77824 4.35084 1.2192
    CHANNELS 3 Zrotation Xrotation Yrotation
    JOINT rThigh
    {
      OFFSET 0 -1.70687 -2.19456
      CHANNELS 3 Zrotation Xrotation Yrotation
      JOINT rShin
      {
        OFFSET 0 -36.8199 0.73152
        CHANNELS 3 Zrotation Xrotation Yrotation
        JOINT rFoot
        {
          OFFSET 0.73152 -45.1104 -5.12064
          CHANNELS 3 Zrotation Xrotation Yrotation
          End Site
          {
            OFFSET -1.1221 -3.69964 12.103
          }
        }
      }
    }
  }
  JOINT lButtock
  {
    OFFSET 8.77824 4.35084 1.2192
    CHANNELS 3 Zrotation Xrotation Yrotation
    JOINT lThigh
    {
      OFFSET 0 -1.70687 -2.19456
      CHANNELS 3 Zrotation Xrotation Yrotation
      JOINT lShin
      {
        OFFSET 0 -36.8199 0.73152
        CHANNELS 3 Zrotation Xrotation Yrotation
        JOINT lFoot
        {
          OFFSET -0.73152 -45.1104 -5.12064
          CHANNELS 3 Zrotation Xrotation Yrotation
          End Site
          {
            OFFSET 1.1221 -3.69964 12.103
          }
        }
      }
    }
  }
}
MOTION
Frames:	8
Frame Time:	0.00833333
-34.9284 84.5501 -43.0565 0.0 0.0 0.0 -0.735068 -0.00369187 -0.0206965 -0.202665 -0.00499143 -0.0351143 3.02979e-15 7.95139e-16 -1.81371e-24 8.84592e-15 9.54166e-15 -4.65902e-18 -0.0 0.0 0.0 -0.0 0.0 0.0 1.58902e-15 2.32951e-18 1.49089e-16 3.25836e-14 -1.11816e-16 9.93923e-16 5.45962e-13 -1.59227e-13 -3.18055e-15 6.20404e-12 1.76769e-13 1.90833e-14 1.46368e-11 4.11838e-14 5.08889e-14 2.52655e-11 7.63333e-14 7.87187e-14 1.46417e-11 4.21423e-14 3.81667e-14 7.73091 5.47488 0.417314 1.46371e-11 4.13472e-14 5.40694e-14 2.90554 0.965183 0.102902 1.46467e-11 4.1546e-14 4.92986e-14 10.2786 0.731801 0.0259123 1.46307e-11 4.45278e-14 5.40694e-14 2.22167 -0.733487 -0.20892 1.39285e-15 2.32951e-18 -1.49089e-16 2.98485e-14 -4.03781e-16 -5.96354e-16 5.3821e-13 1.64395e-13 6.36111e-15 6.19878e-12 -1.51126e-13 2.8625e-14 1.46173e-11 3.22175e-14 5.08889e-14 2.52612e-11 5.40694e-14 9.93923e-14 1.46146e-11 3.06128e-14 6.04305e-14 -7.73091 5.47488 -0.417314 1.46198e-11 3.19049e-14 5.40694e-14 -2.90554 0.965183 -0.102902 1.46178e-11 3.19049e-14 5.56597e-14 -10.2786 0.731801 -0.0259123 1.46248e-11 3.61788e-14 5.08889e-14 -2.22167 -0.733487 0.20892 -2.03217e-16 0.0 -3.88251e-19 -0.0338544 -2.13128 -0.0183752 -0.00890379 -1.69208 -0.0751007 -0.522934 3.82303 0.138318 2.03217e-16 0.0 3.88251e-19 -1.08337 -4.91191 0.0910225 0.00129083 3.34455 -0.00266107 0.531171 1.56716 -0.0928381
-33.7353 83.5066 -42.6099 2.7421 5.9328 -0.9736 -1.65714 -0.937544 -2.98505 2.11729 0.23214 -0.887495 -2.35074 -1.5814 -0.353915 3.82009 -3.35633 0.601336 -0.0 0.0 0.0 -0.0 0.0 0.0 -5.59175e-14 -1.51484e-14 -1.03492e-14 19.8733 15.1178 2.34619 -20.7273 -18.5259 15.1442 0.000173984 0.32986 0.0463566 3.21641e-10 3.66609e-09 -4.47741e-10 5.55151e-10 6.3291e-09 -7.73161e-10 3.21644e-10 3.6661e-09 -4.47752e-10 7.73091 5.47488 0.417314 3.21641e-10 3.66609e-09 -4.47742e-10 2.90554 0.965183 0.102902 3.2165e-10 3.6661e-09 -4.47745e-10 10.2786 0.731801 0.0259123 3.21636e-10 3.6661e-09 -4.47742e-10 2.22167 -0.733487 -0.20892 -5.60731e-14 -1.51443e-14 -1.0609e-14 -19.6301 27.2376 -11.3952 17.9627 -15.5207 -15.0738 -0.979718 -22.2805 2.33875 -7.40904e-10 -1.12005e-10 1.40759e-10 -1.27316e-09 -2.12774e-10 1.92505e-10 -7.40906e-10 -1.12005e-10 1.40769e-10 -7.73091 5.47488 -0.417314 -7.40901e-10 -1.12004e-10 1.40763e-10 -2.90554 0.965183 -0.102902 -7.40903e-10 -1.12004e-10 1.40761e-10 -10.2786 0.731801 -0.0259123 -7.40897e-10 -1.12e-10 1.40755e-10 -2.22167 -0.733487 0.20892 -2.03217e-16 0.0 -3.88251e-19 -1.16006 -12.1959 -2.61998 0.0179485 9.04045 0.100148 -0.767041 1.62544 -2.82443 2.03217e-16 0.0 3.88251e-19 -2.73972 -3.24279 1.77901 -0.0368379 6.96906 -0.168437 0.444775 -3.28152 -1.06876
-33.6477 83.523 -42.0778 2.711 5.4015 -0.5975 -2.73011 -1.91279 -6.11492 4.58028 0.472631 -1.78643 -4.87223 -3.2266 -0.733225 7.96636 -6.93741 1.24468 -0.0 0.0 0.0 -0.0 0.0 0.0 -1.20257e-13 -3.23806e-14 -2.01518e-14 39.3053 30.9425 5.47854 -30.7732 -33.5813 36.2295 -0.000260778 0.696128 0.0978356 6.7411e-10 7.88078e-09 -9.56267e-10 1.16351e-09 1.36053e-08 -1.65128e-09 6.74112e-10 7.88078e-09 -9.56276e-10 7.73091 5.47488 0.417314 6.7411e-10 7.88078e-09 -9.56271e-10 2.90554 0.965183 0.102902 6.74118e-10 7.88078e-09 -9.56273e-10 10.2786 0.731801 0.0259123 6.74106e-10 7.88078e-09 -9.56271e-10 2.22167 -0.733487 -0.20892 -1.20371e-13 -3.23718e-14 -2.03723e-14 -22.4835 51.5887 -35.0165 27.5236 -28.2136 -34.3953 0.733573 -45.6785 6.37805 -1.59309e-09 -2.44759e-10 2.91335e-10 -2.73719e-09 -4.6329e-10 3.95602e-10 -1.5931e-09 -2.44757e-10 2.91346e-10 -7.73091 5.47488 -0.417314 -1.59309e-09 -2.44755e-10 2.9134e-10 -2.90554 0.965183 -0.102902 -1.59309e-09 -2.44756e-10 2.91335e-10 -10.2786 0.731801 -0.0259123 -1.59309e-09 -2.44754e-10 2.91326e-10 -2.22167 -0.733487 0.20892 -2.03217e-16 0.0 -3.88251e-19 -3.4368 -22.7515 -5.70423 -0.0292968 20.5021 0.302642 -1.27624 -0.676495 -5.99293 2.03217e-16 0.0 3.88251e-19 -4.58268 -1.53516 3.54182 -0.0543024 10.9068 -0.348454 0.175698 -8.43972 -2.08693
-33.4596 83.5983 -41.5691 3.013 5.0875 -0.1918 -3.79017 -2.77513 -8.92311 6.77835 0.705763 -2.59243 -7.111 -4.74348 -1.06499 11.6744 -10.0645 1.82907 -0.0 0.0 0.0 -0.0 0.0 0.0 -1.7093e-13 -4.54499e-14 -3.13459e-14 54.6174 44.9832 9.62931 -30.0346 -38.032 60.0281 -0.00107954 0.989577 0.139088 9.35649e-10 1.09982e-08 -1.34333e-09 1.61492e-09 1.89871e-08 -2.31964e-09 9.3565e-10 1.09982e-08 -1.34333e-09 7.73091 5.47488 0.417314 9.35649e-10 1.09982e-08 -1.34333e-09 2.90554 0.965183 0.102902 9.35657e-10 1.09982e-08 -1.34333e-09 10.2786 0.731801 0.0259123 9.35646e-10 1.09982e-08 -1.34333e-09 2.22167 -0.733487 -0.20892 -1.71005e-13 -4.54377e-14 -3.15287e-14 1.8568 58.9489 -78.4281 28.7054 -32.6769 -54.9171 9.24035 -66.0453 16.1695 -2.25195e-09 -3.3608e-10 4.22174e-10 -3.87001e-09 -6.38432e-10 5.77317e-10 -2.25195e-09 -3.36077e-10 4.22186e-10 -7.73091 5.47488 -0.417314 -2.25194e-09 -3.36075e-10 4.2218e-10 -2.90554 0.965183 -0.102902 -2.25195e-09 -3.36075e-10 4.22173e-10 -10.2786 0.731801 -0.0259123 -2.25194e-09 -3.36074e-10 4.22162e-10 -2.22167 -0.733487 0.20892 -2.03217e-16 0.0 -3.88251e-19 -6.57157 -32.0401 -9.03018 -0.14884 30.5045 0.518634 -1.93481 -2.73169 -8.75593 2.03217e-16 0.0 3.88251e-19 -6.34697 0.0904035 5.14711 -0.0483564 14.2176 -0.511946 -0.234115 -12.9623 -3.09433
-33.3199 83.7014 -41.0155 3.1222 4.9625 0.0054 -4.61732 -3.38328 -10.9184 8.30074 0.921037 -3.16594 -8.60177 -5.94024 -1.27495 14.1306 -12.061 2.24094 -0.0 0.0 0.0 -0.0 0.0 0.0 -1.87439e-13 -4.81123e-14 -4.60186e-14 63.3732 54.9068 14.1112 -28.4199 -34.7934 75.0039 -0.00148688 1.10098 0.154752 9.69865e-10 1.13725e-08 -1.42672e-09 1.67397e-09 1.96329e-08 -2.4636e-09 9.69865e-10 1.13725e-08 -1.42672e-09 7.73091 5.47488 0.417314 9.69864e-10 1.13725e-08 -1.42673e-09 2.90554 0.965183 0.102902 9.69872e-10 1.13725e-08 -1.42673e-09 10.2786 0.731801 0.0259123 9.69863e-10 1.13725e-08 -1.42673e-09 2.22167 -0.733487 -0.20892 -1.87481e-13 -4.80999e-14 -4.61677e-14 17.5849 51.9729 -104.757 28.0366 -30.8349 -68.5829 36.2269 -78.4905 43.6454 -2.42745e-09 -3.23819e-10 5.03673e-10 -4.17481e-09 -6.25141e-10 7.05579e-10 -2.42745e-09 -3.23814e-10 5.03685e-10 -7.73091 5.47488 -0.417314 -2.42745e-09 -3.23812e-10 5.03679e-10 -2.90554 0.965183 -0.102902 -2.42745e-09 -3.23813e-10 5.03671e-10 -10.2786 0.731801 -0.0259123 -2.42745e-09 -3.23812e-10 5.0366e-10 -2.22167 -0.733487 0.20892 -2.03217e-16 0.0 -3.88251e-19 -9.48071 -38.4304 -11.845 -0.278872 36.8599 0.696466 -2.48058 -4.21616 -10.4884 2.03217e-16 0.0 3.88251e-19 -7.72862 1.51674 6.36129 -0.0341033 15.9617 -0.622202 -0.654471 -15.9096 -4.00457
-33.2439 83.7826 -40.4488 3.0491 4.6766 0.173 -5.02349 -3.68937 -11.7564 8.86539 1.12467 -3.41009 -9.01764 -6.71128 -1.30689 14.7513 -12.4397 2.39838 -0.0 0.0 0.0 -0.0 0.0 0.0 -1.4763e-13 -3.42091e-14 -7.47702e-14 66.4835 59.5224 16.1183 -28.3232 -32.1613 79.2423 -0.000739035 0.905572 0.127278 6.04483e-10 7.03464e-09 -1.00516e-09 1.04333e-09 1.21427e-08 -1.73553e-09 6.04485e-10 7.03464e-09 -1.00516e-09 7.73091 5.47488 0.417314 6.04482e-10 7.03464e-09 -1.00517e-09 2.90554 0.965183 0.102902 6.04491e-10 7.03464e-09 -1.00516e-09 10.2786 0.731801 0.0259123 6.04483e-10 7.03464e-09 -1.00516e-09 2.22167 -0.733487 -0.20892 -1.47646e-13 -3.42021e-14 -7.4884e-14 21.221 48.2758 -111.772 27.9738 -29.0155 -73.092 66.5337 -81.1823 74.0609 -1.79946e-09 -1.11594e-10 5.36521e-10 -3.10513e-09 -2.53842e-10 8.0179e-10 -1.79947e-09 -1.11589e-10 5.36535e-10 -7.73091 5.47488 -0.417314 -1.79946e-09 -1.11588e-10 5.36527e-10 -2.90554 0.965183 -0.102902 -1.79946e-09 -1.11588e-10 5.36521e-10 -10.2786 0.731801 -0.0259123 -1.79946e-09 -1.11587e-10 5.36511e-10 -2.22167 -0.733487 0.20892 -2.03217e-16 0.0 -3.88251e-19 -10.6102 -41.0107 -12.9798 -0.318531 38.0107 0.75108 -2.63134 -4.8838 -10.7062 2.03217e-16 0.0 3.88251e-19 -8.49296 2.68596 7.06281 -0.0301964 15.432 -0.650493 -0.926073 -16.6364 -4.74784
-33.138 83.8193 -39.9806 3.3783 3.6802 0.7806 -5.10758 -3.78413 -11.7667 8.7441 1.31953 -3.41913 -8.66042 -7.17734 -1.21115 14.0472 -11.6655 2.36999 -0.0 0.0 0.0 -0.0 0.0 0.0 -6.79967e-14 -8.56836e-15 -1.1314e-13 67.1594 60.5101 14.8741 -28.2964 -32.0254 77.8972 0.000193694 0.493489 0.0693527 -4.24512e-11 -6.27522e-10 -2.26715e-10 -7.32603e-11 -1.08697e-09 -3.91143e-10 -4.24466e-11 -6.27523e-10 -2.26723e-10 7.73091 5.47488 0.417314 -4.24522e-11 -6.27519e-10 -2.26722e-10 2.90554 0.965183 0.102902 -4.24425e-11 -6.27521e-10 -2.26722e-10 10.2786 0.731801 0.0259123 -4.24506e-11 -6.2752e-10 -2.2672e-10 2.22167 -0.733487 -0.20892 -6.7992e-14 -8.5709e-15 -1.13217e-13 22.0823 50.0897 -111.998 27.9451 -29.0936 -72.3274 64.3644 -81.1383 71.9035 -6.0359e-10 2.40846e-10 5.33646e-10 -1.06393e-09 3.68692e-10 8.7307e-10 -6.03595e-10 2.40849e-10 5.33661e-10 -7.73091 5.47488 -0.417314 -6.03587e-10 2.40849e-10 5.33651e-10 -2.90554 0.965183 -0.102902 -6.03595e-10 2.4085e-10 5.3365e-10 -10.2786 0.731801 -0.0259123 -6.03589e-10 2.40851e-10 5.33643e-10 -2.22167 -0.733487 0.20892 -2.03217e-16 0.0 -3.88251e-19 -10.045 -40.9426 -12.5882 -0.272114 35.4488 0.702386 -2.45309 -4.9801 -9.83771 2.03217e-16 0.0 3.88251e-19 -8.79485 3.67315 7.39593 -0.035342 13.2821 -0.620234 -1.02662 -15.7831 -5.34905
-32.962 83.9106 -39.4361 3.7981 3.5684 1.1 -5.07124 -3.74023 -11.4669 8.35661 1.49017 -3.3402 -8.00662 -7.48628 -1.07272 12.836 -10.4908 2.2615 -0.0 0.0 0.0 -0.0 0.0 0.0 1.39853e-14 1.85741e-14 -1.40622e-13 66.7698 59.9308 12.3758 -28.2875 -32.7533 74.344 0.00027583 0.0778448 0.0109385 -6.71857e-10 -8.22459e-09 5.66767e-10 -1.15963e-09 -1.42041e-08 9.79185e-10 -6.7185e-10 -8.22459e-09 5.66758e-10 7.73091 5.47488 0.417314 -6.71858e-10 -8.22458e-09 5.66763e-10 2.90554 0.965183 0.102902 -6.71848e-10 -8.22459e-09 5.66762e-10 10.2786 0.731801 0.0259123 -6.71855e-10 -8.22459e-09 5.66765e-10 2.22167 -0.733487 -0.20892 1.40044e-14 1.85623e-14 -1.40675e-13 21.4964 54.1754 -109.069 27.9286 -29.8966 -69.4744 47.6554 -80.0958 55.1642 6.16549e-10 5.61455e-10 4.83799e-10 1.02147e-09 9.40994e-10 8.65924e-10 6.16542e-10 5.61457e-10 4.83815e-10 -7.73091 5.47488 -0.417314 6.16551e-10 5.61455e-10 4.83803e-10 -2.90554 0.965183 -0.102902 6.1654e-10 5.61457e-10 4.83806e-10 -10.2786 0.731801 -0.0259123 6.16548e-10 5.61459e-10 4.83802e-10 -2.22167 -0.733487 0.20892 -2.03217e-16 0.0 -3.88251e-19 -8.86553 -39.7769 -11.6098 -0.205403 31.5614 0.626308 -2.17901 -4.93464 -8.61837 2.03217e-16 0.0 3.88251e-19 -8.90686 4.56328 7.52387 -0.040029 10.613 -0.569257 -1.02118 -14.34 -5.84965
